<svg width="1em" height="1em" viewBox="0 0 41 24" fill="none" xmlns="http://www.w3.org/2000/svg" class="logo-module_logoSmall__saS-G"><path d="M29.82 0h-8.507v24h8.506V0ZM16.102 0H7.565v24h8.537V0Z" fill="#000"></path><path d="M7.384 14.603v7.005c7.322-3.661 28.94-10.337 31.51-10.294.89 0-1.282-1.593-2.179-1.593-1.3 0-16.117 1.154-29.15 4.882" fill="#FFE84D"></path><path d="M33.86 8.714c.006.068.194-.048.567.244.177.14.312.326.39.537a.938.938 0 0 0-.366.61 1.688 1.688 0 0 0 0 .262c0 .178-.043.47 0 .61.043.141.043.27.043.385v.068a.084.084 0 0 1 0 .042c.015.389.22.745.55.952a1.22 1.22 0 0 1-.312.61c-.33.323-.525.323-.525.323s.988.684 1.568-.115c.142-.208.251-.436.323-.677h.275a7.521 7.521 0 0 0 3.295-.928c.188-.114.342-.276.446-.47.04-.075.07-.155.091-.239a1.1 1.1 0 0 0 .018-.341 1.13 1.13 0 0 0-.713-.983 7.557 7.557 0 0 0-3.387-.451l-.293.03a2.307 2.307 0 0 0-.403-.58.914.914 0 0 0-.676-.301c-.481 0-.897.365-.893.411" fill="#000"></path></svg>